<svg xmlns="http://www.w3.org/2000/svg" version="1.1" xmlns:xlink="http://www.w3.org/1999/xlink" xmlns:svgjs="http://svgjs.com/svgjs" width="1440" height="560" preserveAspectRatio="none" viewBox="0 0 1440 560"><g mask="url(&quot;#SvgjsMask3405&quot;)" fill="none"><rect width="1440" height="560" x="0" y="0" fill="url(#SvgjsLinearGradient3406)"></rect><path d="M254.93 563.9C377.05 562.79 490.35 436.89 726.64 436.86 962.93 436.83 962.5 506.86 1198.35 506.86 1434.2 506.86 1550.84 437.05 1670.06 436.86" stroke="rgba(44, 36, 64, 0.73)" stroke-width="2"></path><path d="M749.33 600.46C897.46 555.38 937.85 137.78 1155.05 132.51 1372.24 127.24 1452.05 286.61 1560.76 289.31" stroke="rgba(44, 36, 64, 0.73)" stroke-width="2"></path><path d="M220.12 654.87C397.37 641.41 496.33 303.21 830.89 290.79 1165.46 278.37 1282.15 108 1441.67 105.99" stroke="rgba(44, 36, 64, 0.73)" stroke-width="2"></path><path d="M473.19 659.57C597.64 621.74 524.34 283.63 814.17 266.58 1104.01 249.53 1321.2 110.79 1496.14 109.78" stroke="rgba(44, 36, 64, 0.73)" stroke-width="2"></path><path d="M110.57 661.79C307.55 651.26 457.6 299.64 811.35 299.18 1165.11 298.72 1331.98 466.01 1512.14 467.18" stroke="rgba(44, 36, 64, 0.73)" stroke-width="2"></path></g><defs><mask id="SvgjsMask3405"><rect width="1440" height="560" fill="#ffffff"></rect></mask><linearGradient x1="0%" y1="50%" x2="100%" y2="50%" gradientUnits="userSpaceOnUse" id="SvgjsLinearGradient3406"><stop stop-color="rgba(67, 130, 171, 1)" offset="0.33"></stop><stop stop-color="rgba(0, 101, 175, 1)" offset="1"></stop></linearGradient></defs></svg>